<?xml version="1.0" standalone="no"?>
 <!DOCTYPE svg PUBLIC "-//W3C//DTD SVG 1.1//EN" 
 "http://www.w3.org/Graphics/SVG/1.1/DTD/svg11.dtd"> 
<svg
  xmlns:svg="http://www.w3.org/2000/svg"
  xmlns="http://www.w3.org/2000/svg"
  xmlns:xlink="http://www.w3.org/1999/xlink"
  version="1.1"
  width="126.4412mm" height="78.7908mm" viewBox="0.0000 0.0000 126.4412 78.7908">
<title>SVG Image created as Fossa PCB-Edge_Cuts.svg date 2024/07/04 11:47:15 </title>
  <desc>Image generated by PCBNEW </desc>
<g style="fill:#000000; fill-opacity:1.0000;stroke:#000000; stroke-opacity:1.0000;
stroke-linecap:round; stroke-linejoin:round;"
 transform="translate(0 0) scale(1 1)">
</g>
<g style="fill:#000000; fill-opacity:0.0; 
stroke:#000000; stroke-width:0.0000; stroke-opacity:1; 
stroke-linecap:round; stroke-linejoin:round;">
</g>
<g style="fill:#D0D2CD; fill-opacity:0.0; 
stroke:#D0D2CD; stroke-width:0.0000; stroke-opacity:1; 
stroke-linecap:round; stroke-linejoin:round;">
</g>
<g style="fill:#D0D2CD; fill-opacity:0.0; 
stroke:#D0D2CD; stroke-width:0.1000; stroke-opacity:1; 
stroke-linecap:round; stroke-linejoin:round;">
<circle cx="23.4521" cy="56.3990" r="2.0250" /> 
<path d="M5.4821 3.8600
L5.4821 73.7100
" />
<path d="M5.4821 73.7100 A3.8100 3.8100 0.0 0 0 9.2921 77.5200" />
<path d="M121.0521 73.7100
L121.0521 3.8600
" />
<path d="M9.2921 0.0500 A3.8100 3.8100 0.0 0 0 5.4821 3.8600" />
<path d="M9.2921 77.5200
L117.2421 77.5200
" />
<circle cx="107.2571" cy="56.3990" r="2.0250" /> 
<path d="M117.2421 0.0500
L9.2921 0.0500
" />
<circle cx="107.3841" cy="5.3600" r="2.0250" /> 
<path d="M121.0521 3.8600 A3.8100 3.8100 0.0 0 0 117.2421 0.0500" />
<path d="M117.2421 77.5200 A3.8100 3.8100 0.0 0 0 121.0521 73.7100" />
<circle cx="23.4521" cy="5.3600" r="2.0250" /> 
<g >
</g>
<g >
</g>
<g >
</g>
<g >
</g>
<g >
</g>
<g >
</g>
<g >
</g>
<g >
</g>
<g >
</g>
<g >
</g>
<g >
</g>
<g >
</g>
<g >
</g>
<g >
</g>
<g >
</g>
<g >
</g>
<g >
</g>
<g >
</g>
<g >
</g>
</g> 
</svg>
