M48
; DRILL file {KiCad 7.0.6-0} date 2024 June 24, Monday 16:23:36
; FORMAT={-:-/ absolute / inch / decimal}
; #@! TF.CreationDate,2024-06-24T16:23:36+01:00
; #@! TF.GenerationSoftware,Kicad,Pcbnew,7.0.6-0
; #@! TF.FileFunction,Plated,1,2,PTH
FMAT,2
INCH
; #@! TA.AperFunction,Plated,PTH,ComponentDrill
T1C0.0315
; #@! TA.AperFunction,Plated,PTH,ComponentDrill
T2C0.0394
; #@! TA.AperFunction,Plated,PTH,ComponentDrill
T3C0.0433
%
G90
G05
T1
X4.997Y-5.1731
X4.997Y-5.2519
X5.0757Y-5.1731
X5.0757Y-5.2519
X5.1544Y-5.1731
X5.1544Y-5.2519
X5.2332Y-5.1731
X5.2332Y-5.2519
X5.3119Y-5.1731
X5.3119Y-5.2519
X5.3907Y-5.1731
X5.3907Y-5.2519
X5.4694Y-5.1731
X5.4694Y-5.2519
X5.5481Y-5.1731
X5.5481Y-5.2519
X5.6269Y-5.1731
X5.6269Y-5.2519
X5.7056Y-5.1731
X5.7056Y-5.2519
X5.7844Y-5.1731
X5.7844Y-5.2519
X5.8631Y-5.1731
X5.8631Y-5.2519
X5.9419Y-5.1731
X5.9419Y-5.2519
X6.0206Y-5.1731
X6.0206Y-5.2519
X6.0993Y-5.1731
X6.0993Y-5.2519
X6.1781Y-5.1731
X6.1781Y-5.2519
X6.2568Y-5.1731
X6.2568Y-5.2519
X6.3356Y-5.1731
X6.3356Y-5.2519
X6.4143Y-5.1731
X6.4143Y-5.2519
X6.493Y-5.1731
X6.493Y-5.2519
T2
X3.3Y-3.85
X3.3Y-3.95
X3.3Y-4.05
X3.3Y-4.15
X3.3Y-4.25
X3.3Y-4.35
X3.3Y-4.45
X3.3Y-4.55
X3.4Y-3.85
X3.4Y-3.95
X3.4Y-4.05
X3.4Y-4.15
X3.4Y-4.25
X3.4Y-4.35
X3.4Y-4.45
X3.4Y-4.55
X5.4752Y-3.3571
X5.4752Y-4.05
X7.05Y-3.3571
X7.05Y-4.05
X8.04Y-3.56
X8.04Y-3.66
X8.04Y-3.76
X8.04Y-3.86
X8.04Y-3.96
X8.05Y-4.45
X8.05Y-4.55
X8.05Y-4.65
X8.05Y-4.75
X8.05Y-4.85
T3
X5.501Y-6.19
X5.845Y-6.19
T0
M30
